<?xml version="1.0" encoding="UTF-8"?>
<svg version="1.1" xmlns="http://www.w3.org/2000/svg" width="406" height="306">
<path d="M0 0 C12.90941759 9.59845298 22.34416852 23.76850665 24.81640625 39.84228516 C25.03985914 42.46845089 24.97889232 45.0333875 24.90625 47.66796875 C24.37599886 61.3145427 24.37599886 61.3145427 31.07104492 72.66625977 C33.93519829 75.30358427 36.85839228 77.69750557 40 80 C42.78382043 78.72829615 44.82934578 77.41939717 46.9866333 75.25387573 C47.54746613 74.69579224 48.10829895 74.13770874 48.68612671 73.56271362 C49.28889435 72.95275543 49.89166199 72.34279724 50.51269531 71.71435547 C51.15701508 71.07032776 51.80133484 70.42630005 52.46517944 69.76275635 C54.59093698 67.63560693 56.70952508 65.50146388 58.828125 63.3671875 C60.30170781 61.88987407 61.77573318 60.41300196 63.25018311 58.93655396 C67.12780821 55.05129631 70.99938941 51.16006971 74.86975098 47.26757812 C78.82099939 43.29586322 82.77792261 39.329811 86.734375 35.36328125 C94.49515421 27.5810588 102.24956148 19.79252001 110 12 C109.34 11.21625 108.68 10.4325 108 9.625 C106 7 106 7 106 5 C107.91664851 3.68862879 109.90026675 2.47484439 111.90625 1.3046875 C112.50554321 0.95238068 113.10483643 0.60007385 113.72229004 0.23709106 C115.64420189 -0.89059194 117.5719491 -2.00785194 119.5 -3.125 C120.8011775 -3.88604167 122.10196425 -4.64775184 123.40234375 -5.41015625 C126.59705864 -7.28122608 129.7970865 -9.14299164 133 -11 C134.06816445 -10.13192399 135.12918085 -9.25505217 136.1875 -8.375 C136.77917969 -7.88773438 137.37085938 -7.40046875 137.98046875 -6.8984375 C140.54686166 -4.48592888 142.74508093 -1.70590288 145 1 C139.72 9.91 134.44 18.82 129 28 C125 26 125 26 122 24 C99.56 46.44 77.12 68.88 54 92 C55.59985985 95.19971969 56.40508902 96.65315322 58.78840637 99.00872803 C59.35609238 99.57482788 59.92377838 100.14092773 60.50866699 100.72418213 C61.12947144 101.33308289 61.75027588 101.94198364 62.38989258 102.56933594 C63.04539597 103.2203125 63.70089935 103.87128906 64.37626648 104.54199219 C65.79932233 105.95409617 67.22464498 107.3639186 68.65195656 108.77172089 C70.91431276 111.00389259 73.16990887 113.2426942 75.42375183 115.48345947 C81.83303054 121.8530128 88.25482458 128.20989412 94.67993164 134.56347656 C98.61135776 138.45205977 102.53534576 142.34802765 106.45511436 146.24835968 C107.94685815 147.72956975 109.44150742 149.20785986 110.93915749 150.68309784 C113.04034305 152.75290062 115.13199169 154.83192934 117.22192383 156.91308594 C117.83665558 157.51388977 118.45138733 158.1146936 119.08474731 158.73370361 C128.74225558 168.41189104 131.35985727 177.31275245 131.375 190.8125 C131.39949219 191.95009766 131.42398438 193.08769531 131.44921875 194.25976562 C131.48497485 204.58732055 128.96386428 211.63248172 121.93359375 219.20703125 C114.21510049 226.36417954 107.13114264 227.50685063 96.8125 227.25390625 C88.20882747 226.68091576 83.22631372 223.50697922 77.03125 217.65625 C76.4679599 217.12992981 75.9046698 216.60360962 75.3243103 216.06134033 C69.53998259 210.62569298 63.89703158 205.04880176 58.29541016 199.42578125 C56.60824042 197.73318653 54.91569804 196.04609403 53.22265625 194.359375 C44.25663879 185.39835701 44.25663879 185.39835701 40.58203125 181.078125 C35.1339893 174.69479688 29.01269439 168.9091051 23.0625 163 C21.79338627 161.7359115 20.52450411 160.47159044 19.25585938 159.20703125 C16.1732368 156.13533276 13.08749572 153.06679992 10 150 C2.2090665 152.96918313 -1.45223748 158.84816093 -4.96484375 166.24609375 C-7.06468169 171.83245507 -8.24542525 177.92142183 -7.76965332 183.88943481 C-8.06254654 187.84461862 -9.14868815 188.87865289 -11.94726562 191.62841797 C-12.80815796 192.48885712 -13.66905029 193.34929626 -14.55603027 194.23580933 C-15.49660278 195.14541412 -16.43717529 196.05501892 -17.40625 196.9921875 C-18.37162472 197.94636511 -19.33567837 198.901881 -20.29846191 199.8586731 C-22.83033114 202.36768449 -25.37969745 204.8581538 -27.9331665 207.34515381 C-30.53789473 209.88839377 -33.12562206 212.44880426 -35.71484375 215.0078125 C-40.79341004 220.02212043 -45.89066467 225.01703217 -51 230 C-56.63568661 225.31179066 -61.83103966 220.30014592 -66.99609375 215.1015625 C-67.82963882 214.26660248 -68.6631839 213.43164246 -69.52198792 212.57138062 C-72.16286524 209.92494152 -74.80022896 207.27503241 -77.4375 204.625 C-79.23609649 202.82138357 -81.03492227 201.01799575 -82.83398438 199.21484375 C-87.22531248 194.81253739 -91.61376729 190.40738286 -96 186 C-89.17658403 177.89338247 -81.8530826 170.29827497 -74.45336914 162.71875 C-72.77679051 160.99027145 -71.11199006 159.25028963 -69.45922852 157.49902344 C-67.05221466 154.95163033 -64.60764396 152.44609198 -62.15234375 149.9453125 C-61.42893295 149.16310333 -60.70552216 148.38089417 -59.96018982 147.57498169 C-54.56925955 142.20142195 -50.45093571 141.10282452 -42.86798096 141.03173828 C-34.12700579 140.93500698 -24.24552986 134.87229102 -18 129 C-16.70915672 126.39666855 -16.70915672 126.39666855 -16 124 C-17.3442285 121.73040118 -17.3442285 121.73040118 -20 120 C-22.45359043 119.94907642 -24.74917523 120.28450677 -27.1796875 120.62109375 C-41.70711864 122.57284004 -56.91003857 119.44051486 -69 111 C-72.53890677 108.18662132 -75.79894989 105.19006881 -79 102 C-79.63808594 101.38511719 -80.27617188 100.77023438 -80.93359375 100.13671875 C-95.31592786 85.17780999 -96.47217791 65.75597874 -96.203125 46.15234375 C-96.0916361 42.02348793 -95.69975991 38.0687653 -95 34 C-91.67295832 35.43943613 -89.5912802 37.21403229 -87.10864258 39.83886719 C-86.3571846 40.62598083 -85.60572662 41.41309448 -84.83149719 42.22406006 C-84.02729843 43.07308899 -83.22309967 43.92211792 -82.39453125 44.796875 C-80.67261416 46.57816783 -78.94926186 48.3580742 -77.22460938 50.13671875 C-74.5096151 52.94445135 -71.80399018 55.75900786 -69.12182617 58.59814453 C-66.52947647 61.33571526 -63.90354041 64.03694481 -61.26953125 66.734375 C-60.47545364 67.59150085 -59.68137604 68.44862671 -58.86323547 69.33172607 C-54.91636155 73.56532379 -54.91636155 73.56532379 -49.6104126 75.12136841 C-47.26494118 74.62637683 -45.20815311 73.92491384 -43 73 C-42.0423877 72.71302246 -41.08477539 72.42604492 -40.09814453 72.13037109 C-38.87780518 71.70618896 -38.87780518 71.70618896 -37.6328125 71.2734375 C-36.72789062 70.9640625 -35.82296875 70.6546875 -34.890625 70.3359375 C-33.97796875 70.01882812 -33.0653125 69.70171875 -32.125 69.375 C-30.27487958 68.73280944 -28.42337159 68.09459851 -26.5703125 67.4609375 C-25.76352051 67.18040527 -24.95672852 66.89987305 -24.12548828 66.61083984 C-22 66 -22 66 -19 66 C-18.62875 64.14375 -18.62875 64.14375 -18.25 62.25 C-17.16911864 57.26374439 -15.49377128 52.56993317 -13.70703125 47.796875 C-12.90714416 44.63268077 -13.07382815 43.10524185 -14 40 C-15.50597091 38.00606403 -15.50597091 38.00606403 -17.51000977 36.2421875 C-18.6210482 35.19454224 -18.6210482 35.19454224 -19.75453186 34.12573242 C-20.55870041 33.38299072 -21.36286896 32.64024902 -22.19140625 31.875 C-23.87566977 30.26570413 -25.55857032 28.6549808 -27.24023438 27.04296875 C-29.89523111 24.51769339 -32.55837651 22.00381859 -35.24682617 19.51416016 C-37.84179502 17.10162577 -40.39304539 14.64909515 -42.94140625 12.1875 C-44.15069542 11.09767822 -44.15069542 11.09767822 -45.38441467 9.98583984 C-48.83308156 6.60213375 -50.7982315 4.41406017 -51.49459839 -0.46630859 C-51.50268973 -3.68715327 -51.35955121 -6.80089083 -51 -10 C-32.86523504 -13.13285363 -15.46862108 -9.91468221 0 0 Z M87.0625 186.9375 C85.81395514 188.97446443 85.81395514 188.97446443 86 191.4375 C87.74628355 195.91235161 91.08759552 198.39173035 95 201 C100.27741041 201.71249183 104.70887994 201.64556003 109.5 199.25 C112.70641472 196.4697526 112.70641472 196.4697526 115 193 C115.06692767 189.85439972 114.83132428 187.90382349 112.65625 185.5390625 C107.53003412 181.19183041 104.31400086 180.65484554 97.765625 180.71484375 C92.9449249 181.21189334 90.36597882 183.63402118 87.0625 186.9375 Z " fill="#92A2A3" transform="translate(179,44)"/>
<path d="M0 0 C5.55439924 4.62491379 10.68525669 9.55360964 15.77734375 14.6796875 C16.58869278 15.49245148 17.40004181 16.30521545 18.23597717 17.14260864 C20.8055259 19.71771738 23.37155968 22.2962962 25.9375 24.875 C27.68791929 26.63043946 29.438568 28.38565017 31.18945312 30.140625 C35.46229302 34.42444082 39.73225899 38.71110472 44 43 C25.74759781 64.32392442 25.74759781 64.32392442 19.77734375 65.79296875 C16.8125 65.625 16.8125 65.625 13.90625 65.22265625 C5.8843945 64.60807861 -2.1181314 70.15346944 -8.03515625 75.12890625 C-16.27300696 82.97369847 -20.23447163 92.70845661 -21 104 C-20.9237439 104.97059357 -20.84748779 105.94118713 -20.7689209 106.94119263 C-21.06467897 110.85615928 -22.17548082 111.90497825 -24.94726562 114.62841797 C-25.80815796 115.48885712 -26.66905029 116.34929626 -27.55603027 117.23580933 C-28.49660278 118.14541412 -29.43717529 119.05501892 -30.40625 119.9921875 C-31.37162472 120.94636511 -32.33567837 121.901881 -33.29846191 122.8586731 C-35.83033114 125.36768449 -38.37969745 127.8581538 -40.9331665 130.34515381 C-43.53789473 132.88839377 -46.12562206 135.44880426 -48.71484375 138.0078125 C-53.79341004 143.02212043 -58.89066467 148.01703217 -64 153 C-69.63568661 148.31179066 -74.83103966 143.30014592 -79.99609375 138.1015625 C-80.82963882 137.26660248 -81.6631839 136.43164246 -82.52198792 135.57138062 C-85.16286524 132.92494152 -87.80022896 130.27503241 -90.4375 127.625 C-92.23609649 125.82138357 -94.03492227 124.01799575 -95.83398438 122.21484375 C-100.22531248 117.81253739 -104.61376729 113.40738286 -109 109 C-102.17658403 100.89338247 -94.8530826 93.29827497 -87.45336914 85.71875 C-85.77679051 83.99027145 -84.11199006 82.25028963 -82.45922852 80.49902344 C-80.05221466 77.95163033 -77.60764396 75.44609198 -75.15234375 72.9453125 C-74.42893295 72.16310333 -73.70552216 71.38089417 -72.96018982 70.57498169 C-67.56925955 65.20142195 -63.45093571 64.10282452 -55.86798096 64.03173828 C-46.90404462 63.9325396 -37.54582145 57.77434963 -31 52 C-25.39536467 45.83973271 -22.57820896 38.0952836 -21 30 C-21.13390137 28.99948608 -21.13390137 28.99948608 -21.27050781 27.97875977 C-21.80691049 23.83822878 -21.55484555 21.75944399 -19.03759766 18.31396484 C-16.29094647 15.40523627 -13.43671093 12.65036767 -10.5 9.9375 C-9.48623624 8.9689328 -8.47449351 7.99824557 -7.46484375 7.02539062 C-4.99562665 4.66199712 -2.50794847 2.32213922 0 0 Z " fill="#F29B12" transform="translate(192,121)"/>
<path d="M0 0 C5.25174926 4.38442526 10.13222473 9.00842093 14.9375 13.875 C15.62134766 14.56335938 16.30519531 15.25171875 17.00976562 15.9609375 C18.67551464 17.63833511 20.3388622 19.31803791 22 21 C20.52122394 24.42682879 18.59673853 26.65037109 15.96310425 29.27740479 C15.11893951 30.12431885 14.27477478 30.97123291 13.4050293 31.84381104 C12.477146 32.76450378 11.5492627 33.68519653 10.59326172 34.63378906 C9.60732795 35.61915853 8.62183467 36.60496893 7.63674927 37.59118652 C4.96372691 40.26478265 2.28458338 42.93216786 -0.39569712 45.59848499 C-3.19664267 48.38692731 -5.99192479 51.18103513 -8.78781128 53.97454834 C-14.08197478 59.26249589 -19.38121585 64.54532455 -24.68229759 69.82633567 C-30.71761114 75.83929384 -36.74724606 81.85793262 -42.77640939 87.8770566 C-55.17796265 100.25770525 -67.58663262 112.63119696 -80 125 C-81.12203297 124.04359074 -82.24331233 123.08629732 -83.36427307 122.12863159 C-83.98876626 121.59563383 -84.61325945 121.06263607 -85.25667667 120.51348686 C-87.23901519 118.79249612 -89.1169148 116.99709481 -90.96484375 115.1328125 C-91.61904297 114.47539062 -92.27324219 113.81796875 -92.94726562 113.140625 C-93.60404297 112.47546875 -94.26082031 111.8103125 -94.9375 111.125 C-95.62134766 110.43664062 -96.30519531 109.74828125 -97.00976562 109.0390625 C-98.67551593 107.36166359 -100.33840361 105.68151054 -102 104 C-95.93961971 96.82499411 -89.52426914 90.05300514 -82.96191406 83.3371582 C-81.57134219 81.90477808 -80.19073122 80.46265967 -78.8203125 79.01098633 C-65.12231943 64.51755185 -65.12231943 64.51755185 -55.49755859 64.0456543 C-54.67336426 64.03058838 -53.84916992 64.01552246 -53 64 C-42.42079031 60.79745013 -32.06822284 55.27195621 -26.25 45.5859375 C-22.12817608 37.11948351 -22.12817608 37.11948351 -21.27050781 27.97875977 C-21.80691049 23.83822878 -21.55484555 21.75944399 -19.03759766 18.31396484 C-16.29094647 15.40523627 -13.43671093 12.65036767 -10.5 9.9375 C-9.48623624 8.9689328 -8.47449351 7.99824557 -7.46484375 7.02539062 C-4.99562665 4.66199712 -2.50794847 2.32213922 0 0 Z " fill="#F0C20F" transform="translate(192,121)"/>
<path d="M0 0 C1.98 1.65 3.96 3.3 6 5 C4.008781 7.3413569 2.00947798 9.67436856 0 12 C-0.56364258 12.65468262 -1.12728516 13.30936523 -1.70800781 13.98388672 C-12.60671316 26.41110639 -12.60671316 26.41110639 -18.22265625 27.79296875 C-21.1875 27.625 -21.1875 27.625 -24.09375 27.22265625 C-32.1156055 26.60807861 -40.1181314 32.15346944 -46.03515625 37.12890625 C-54.27300696 44.97369847 -58.23447163 54.70845661 -59 66 C-58.9237439 66.97059357 -58.84748779 67.94118713 -58.7689209 68.94119263 C-59.06467897 72.85615928 -60.17548082 73.90497825 -62.94726562 76.62841797 C-63.80815796 77.48885712 -64.66905029 78.34929626 -65.55603027 79.23580933 C-66.49660278 80.14541412 -67.43717529 81.05501892 -68.40625 81.9921875 C-69.37162472 82.94636511 -70.33567837 83.901881 -71.29846191 84.8586731 C-73.83033114 87.36768449 -76.37969745 89.8581538 -78.9331665 92.34515381 C-81.53789473 94.88839377 -84.12562206 97.44880426 -86.71484375 100.0078125 C-91.79341004 105.02212043 -96.89066467 110.01703217 -102 115 C-107.63568661 110.31179066 -112.83103966 105.30014592 -117.99609375 100.1015625 C-118.82963882 99.26660248 -119.6631839 98.43164246 -120.52198792 97.57138062 C-123.16286524 94.92494152 -125.80022896 92.27503241 -128.4375 89.625 C-130.23609649 87.82138357 -132.03492227 86.01799575 -133.83398438 84.21484375 C-138.22531248 79.81253739 -142.61376729 75.40738286 -147 71 C-140.14524172 62.83333272 -132.70655275 55.26239649 -125.23364258 47.66381836 C-123.53255449 45.92586711 -121.84049105 44.1790377 -120.1574707 42.42358398 C-117.71357768 39.87640441 -115.2415298 37.35982066 -112.76171875 34.84765625 C-112.01766281 34.0602858 -111.27360687 33.27291534 -110.50700378 32.46168518 C-106.76735625 28.73525814 -104.38758368 26.52961964 -98.95239258 26.50952148 C-97.64810303 26.67137939 -96.34381348 26.8332373 -95 27 C-95 27.33 -95 27.66 -95 28 C-96.71219727 28.00084595 -96.71219727 28.00084595 -98.45898438 28.00170898 C-104.45934648 28.77250877 -107.6428352 32.76491378 -111.65625 36.97265625 C-112.44398804 37.77029892 -113.23172607 38.56794159 -114.04333496 39.38975525 C-116.54585089 41.93133218 -119.02287943 44.49618963 -121.5 47.0625 C-123.19628966 48.79391321 -124.89418964 50.52375033 -126.59375 52.25195312 C-130.74799886 56.48321786 -134.88160655 60.73384411 -139 65 C-134.82222235 69.98592875 -130.46872723 74.66704284 -125.8515625 79.24609375 C-125.19417084 79.90207047 -124.53677917 80.55804718 -123.85946655 81.23390198 C-121.78367138 83.30415268 -119.70440573 85.37087651 -117.625 87.4375 C-116.2067992 88.85067862 -114.78882824 90.26408794 -113.37109375 91.67773438 C-109.91671223 95.12116065 -106.4592163 98.56143099 -103 102 C-95.2396503 95.45016069 -87.90744297 88.49518056 -80.62817383 81.41772461 C-79.00442353 79.85082263 -77.36830365 78.29663611 -75.7199707 76.75561523 C-64.14636063 66.64324806 -64.14636063 66.64324806 -59.06640625 52.7734375 C-59.0619751 51.6189209 -59.05754395 50.4644043 -59.05297852 49.27490234 C-58.91804543 40.93392376 -53.92113639 31.7959538 -48 26 C-41.5281937 20.95716853 -31.98099937 14.3374342 -23.390625 15.2890625 C-22.51921875 15.42054688 -21.6478125 15.55203125 -20.75 15.6875 C-17.50784946 15.88984031 -15.66886348 15.50026219 -13.05517578 13.54541016 C-8.37709963 9.34556172 -4.13215923 4.73205646 0 0 Z " fill="#CE741D" transform="translate(230,159)"/>
<path d="M0 0 C1.98 1.65 3.96 3.3 6 5 C1.68355637 10.09884047 -2.70854822 15.09598621 -7.3125 19.9375 C-7.92544922 20.62134766 -8.53839844 21.30519531 -9.16992188 22.00976562 C-13.76063943 26.78163299 -13.76063943 26.78163299 -17.48583984 27.43798828 C-19.70495739 27.44102876 -21.80597024 27.32073139 -24 27 C-24 30.24199646 -21.38030667 31.92312987 -19.20166016 34.10473633 C-18.43571533 34.88316643 -18.43571533 34.88316643 -17.65429688 35.67732239 C-15.95472119 37.40109913 -14.24748436 39.11702404 -12.5390625 40.83203125 C-11.35224845 42.02781157 -10.16551248 43.22366939 -8.97885132 44.41960144 C-6.48231826 46.93265972 -3.9813911 49.44125686 -1.47802734 51.94750977 C1.71240184 55.14329338 4.88641598 58.3548506 8.05650902 61.57079029 C10.50685188 64.05105746 12.96855229 66.51981647 15.4333992 68.98566246 C16.60715027 70.16359371 17.77681981 71.34560786 18.9421196 72.53190041 C27.60888986 81.3421218 36.08851914 89.01869114 49.0625 89.3125 C57.75935716 89.22543469 65.02751486 86.82062449 71.46484375 80.83984375 C75.53966344 75.95628122 77.95540843 70.23421138 79 64 C79.33 64 79.66 64 80 64 C80.57062924 75.14312095 79.84870612 82.51063183 72.75 91.25 C67.34533908 97.07308628 61.64547934 100.66661854 53.6796875 101.23828125 C41.90749244 101.46792366 34.76646559 99.90594418 26.03125 91.65625 C25.4679599 91.12992981 24.9046698 90.60360962 24.3243103 90.06134033 C18.53998259 84.62569298 12.89703158 79.04880176 7.29541016 73.42578125 C5.60824042 71.73318653 3.91569804 70.04609403 2.22265625 68.359375 C-6.74424412 59.39747496 -6.74424412 59.39747496 -10.38671875 55.109375 C-15.99600361 48.53712278 -22.31202611 42.5847552 -28.4375 36.5 C-29.75479059 35.18773415 -31.07184986 33.87523605 -32.38867188 32.5625 C-35.5897861 29.37231494 -38.79401865 26.18529349 -42 23 C-37.87131854 18.65832207 -32.71455488 16.6414147 -27 15 C-24.0703125 15.20703125 -24.0703125 15.20703125 -21.1875 15.625 C-17.79011429 15.85059002 -15.78620855 15.57357883 -13.01220703 13.54980469 C-8.31962328 9.37498569 -4.09665769 4.75414596 0 0 Z " fill="#7A8787" transform="translate(230,170)"/>
<path d="M0 0 C0.33 0 0.66 0 1 0 C1.01417969 1.11375 1.02835937 2.2275 1.04296875 3.375 C1.53087104 22.1934951 6.40361006 37.68227962 19.5234375 51.6796875 C30.81688362 62.26061336 46.46299352 68.30525309 61.9140625 68.2421875 C64.11417681 68.05193422 64.11417681 68.05193422 66.5859375 67.1953125 C69.61290596 66.30502766 71.84117068 65.77809877 75 66 C79.14439861 68.68456427 82.39298061 71.79648021 85 76 C84.84369467 79.1171748 84.47242633 80.45198546 82.4375 82.8125 C81.963125 83.204375 81.48875 83.59625 81 84 C80.38125 83.154375 79.7625 82.30875 79.125 81.4375 C75.70246809 78.76792511 75.44140697 78.69748884 71.4375 79.1875 C70.12458984 79.38472656 70.12458984 79.38472656 68.78515625 79.5859375 C54.36317879 81.7300183 38.98788454 78.36925066 27 70 C23.46109323 67.18662132 20.20105011 64.19006881 17 61 C16.36191406 60.38511719 15.72382812 59.77023438 15.06640625 59.13671875 C0.4591721 43.94389392 -0.43863585 24.33321042 -0.10546875 4.46875 C-0.07246175 2.97911749 -0.03817748 1.48950896 0 0 Z " fill="#778384" transform="translate(83,85)"/>
<path d="M0 0 C2 1 4 2 6 3 C4.64044743 6.03864948 3.11309872 8.13487937 0.76034546 10.48016357 C0.09287796 11.1503804 -0.57458954 11.82059723 -1.26228333 12.51112366 C-1.99380112 13.2354509 -2.72531891 13.95977814 -3.47900391 14.70605469 C-4.24982803 15.47717087 -5.02065216 16.24828705 -5.81483459 17.04277039 C-8.364032 19.59057438 -10.92024072 22.13122091 -13.4765625 24.671875 C-15.24533896 26.43692138 -17.01367439 28.20240982 -18.78158569 29.96832275 C-22.96046828 34.1403491 -27.14378094 38.30789848 -31.32926309 42.47330117 C-36.56259635 47.68207257 -41.78901743 52.89776266 -47.015625 58.11328125 C-56.33821267 67.41441813 -65.66692946 76.70938262 -75 86 C-76.65 84.68 -78.3 83.36 -80 82 C-78.64680663 78.98052101 -77.13702023 76.88899123 -74.79830933 74.55780029 C-74.13925598 73.89599762 -73.48020264 73.23419495 -72.80117798 72.55233765 C-72.07901093 71.83736115 -71.35684387 71.12238464 -70.61279297 70.38574219 C-69.85172241 69.62437958 -69.09065186 68.86301697 -68.30651855 68.07858276 C-65.78978644 65.56324396 -63.26604416 63.05506339 -60.7421875 60.546875 C-58.99583128 58.80424889 -57.2499161 57.06118069 -55.50442505 55.31768799 C-50.90896304 50.72986252 -46.30752651 46.14807483 -41.70483398 41.56750488 C-37.00924536 36.89237414 -32.31931378 32.21157832 -27.62890625 27.53125 C-18.42480823 18.34860228 -9.21458132 9.1721273 0 0 Z " fill="#BBC1C5" transform="translate(290,57)"/>
<path d="M0 0 C1.98 1.65 3.96 3.3 6 5 C4.008781 7.3413569 2.00947798 9.67436856 0 12 C-0.56364258 12.65468262 -1.12728516 13.30936523 -1.70800781 13.98388672 C-12.60671316 26.41110639 -12.60671316 26.41110639 -18.22265625 27.79296875 C-21.1875 27.625 -21.1875 27.625 -24.09375 27.22265625 C-32.11995204 26.60774561 -40.09644834 32.15686175 -46.03125 37.11328125 C-51.17620367 42.04386185 -54.50975845 47.35935587 -57 54 C-57.99 54 -58.98 54 -60 54 C-59.41458539 43.85281341 -55.35344481 33.19798086 -48 26 C-41.5281937 20.95716853 -31.98099937 14.3374342 -23.390625 15.2890625 C-22.51921875 15.42054688 -21.6478125 15.55203125 -20.75 15.6875 C-17.50784946 15.88984031 -15.66886348 15.50026219 -13.05517578 13.54541016 C-8.37709963 9.34556172 -4.13215923 4.73205646 0 0 Z " fill="#E27C21" transform="translate(230,159)"/>
<path d="M0 0 C2.22106034 1.11053017 3.05073977 2.1306865 4.60986328 4.04125977 C8.25888299 8.37761704 12.22282223 12.3487179 16.2421875 16.33984375 C17.39474533 17.49027916 17.39474533 17.49027916 18.57058716 18.66395569 C21.00303509 21.0908474 23.43895322 23.51422127 25.875 25.9375 C27.53408552 27.59156486 29.19294202 29.24585945 30.8515625 30.90039062 C34.89839814 34.93625538 38.94834779 38.96897092 43 43 C42.01 46.3 41.02 49.6 40 53 C39.34298096 52.33355469 38.68596191 51.66710937 38.0090332 50.98046875 C35.09695492 48.06756091 32.09800072 45.25166488 29.09721375 42.43066406 C25.93107624 39.43906658 22.79954219 36.41227189 19.66918945 33.38330078 C18.01718551 31.79679193 16.35372039 30.22213028 14.67895508 28.65966797 C-0.06524974 14.87713632 -0.06524974 14.87713632 -1.07177734 8.9765625 C-1.07394647 5.77666102 -0.84145779 3.07888556 0 0 Z " fill="#737F80" transform="translate(128,34)"/>
<path d="M0 0 C4.5106698 4.09107261 6.46766014 8.2024614 7.0625 14.25 C6.6875 17.4375 6.6875 17.4375 4.6875 20.4375 C4.31625 19.53 3.945 18.6225 3.5625 17.6875 C1.28536616 13.74046802 -0.17084169 12.36041279 -4.3125 10.4375 C-9.63783427 9.66088875 -13.90325444 9.78320742 -18.8125 12.0625 C-21.53952303 14.65317188 -22.89508926 16.9727182 -24.3125 20.4375 C-26.93030675 15.9527303 -26.49503051 12.37327951 -25.3125 7.4375 C-23.02025219 3.01673636 -20.8126517 0.57507206 -16.3125 -1.5625 C-10.6510294 -3.32436844 -5.30010413 -2.50004912 0 0 Z " fill="#798687" transform="translate(289.3125,215.5625)"/>
<path d="M0 0 C4.875 4.75 4.875 4.75 6 7 C5.45730469 7.47050781 4.91460937 7.94101563 4.35546875 8.42578125 C3.64003906 9.04839844 2.92460937 9.67101562 2.1875 10.3125 C1.47980469 10.92738281 0.77210938 11.54226562 0.04296875 12.17578125 C-1.70136739 13.73334335 -3.36778041 15.32658875 -5 17 C-8.16115776 15.63016497 -8.9927092 15.0109362 -11 12 C-10.28972656 11.30132812 -9.57945312 10.60265625 -8.84765625 9.8828125 C-7.92855469 8.97273437 -7.00945312 8.06265625 -6.0625 7.125 C-4.68771484 5.76761719 -4.68771484 5.76761719 -3.28515625 4.3828125 C-0.98812373 2.22317745 -0.98812373 2.22317745 0 0 Z " fill="#7F8B8B" transform="translate(231,136)"/>
</svg>
